<?xml version="1.0" encoding="UTF-8" standalone="no"?>
<!-- Generator: Adobe Illustrator 16.0.0, SVG Export Plug-In . SVG Version: 6.00 Build 0)  -->
<svg xmlns:dc="http://purl.org/dc/elements/1.1/" xmlns:cc="http://creativecommons.org/ns#" xmlns:rdf="http://www.w3.org/1999/02/22-rdf-syntax-ns#" xmlns:svg="http://www.w3.org/2000/svg" xmlns="http://www.w3.org/2000/svg" xmlns:sodipodi="http://sodipodi.sourceforge.net/DTD/sodipodi-0.dtd" xmlns:inkscape="http://www.inkscape.org/namespaces/inkscape" version="1.1" id="Layer_2" x="0px" y="0px" width="36" height="301.00101" viewBox="-23.5 -134.5 36 301.00101" enable-background="new -23.5 -134.5 74 140" xml:space="preserve" inkscape:version="0.48.2 r9819" sodipodi:docname="feeback-interactions.svg" inkscape:export-filename="/Users/vaikohansson/Sites/knowledgebase/src/main/webapp/images/responsive/elements/feeback-interactions.png" inkscape:export-xdpi="90" inkscape:export-ydpi="90"><metadata id="metadata39"><rdf:RDF><cc:Work rdf:about=""><dc:format>image/svg+xml</dc:format><dc:type rdf:resource="http://purl.org/dc/dcmitype/StillImage"/><dc:title/></cc:Work></rdf:RDF></metadata><defs id="defs37"/><sodipodi:namedview pagecolor="#ffffff" bordercolor="#666666" borderopacity="1" objecttolerance="10" gridtolerance="10" guidetolerance="10" inkscape:pageopacity="0" inkscape:pageshadow="2" inkscape:window-width="1850" inkscape:window-height="958" id="namedview35" showgrid="true" fit-margin-bottom="1" fit-margin-top="1" fit-margin-left="0" fit-margin-right="0" inkscape:zoom="13.485714" inkscape:cx="38.069387" inkscape:cy="136.30392" inkscape:window-x="0" inkscape:window-y="0" inkscape:window-maximized="0" inkscape:current-layer="Layer_2"><inkscape:grid type="xygrid" id="grid3016" empspacing="5" visible="true" enabled="true" snapvisiblegridlinesonly="true"/></sodipodi:namedview>
<circle cx="-5.5" cy="-11" r="15" id="circle3" sodipodi:cx="-5.5" sodipodi:cy="-11" sodipodi:rx="15" sodipodi:ry="15" style="fill:#ffffff" transform="translate(-1.7519472e-7,122.001)"/>
<circle cx="-5.5" cy="-118" r="15" id="circle5" sodipodi:cx="-5.5" sodipodi:cy="-118" sodipodi:rx="15" sodipodi:ry="15" style="fill:#ffffff" transform="translate(-1.7519472e-7,1.0000059)"/>
<circle cx="32.5" cy="-118" r="15" id="circle7" sodipodi:cx="32.5" sodipodi:cy="-118" sodipodi:rx="15" sodipodi:ry="15" style="fill:#ffffff" transform="translate(-38,39.001006)"/>
<circle cx="32.5" cy="-11" r="15" id="circle9" sodipodi:cx="32.5" sodipodi:cy="-11" sodipodi:rx="15" sodipodi:ry="15" style="fill:#ffffff" transform="translate(-38,160.001)"/>
<circle cx="-5.5" cy="-83" r="17.5" id="circle11" sodipodi:cx="-5.5" sodipodi:cy="-83" sodipodi:rx="17.5" sodipodi:ry="17.5" style="fill:#7fba00" transform="translate(-1.7519472e-7,42.001006)"/>
<circle cx="32.5" cy="-83" r="17.5" id="circle13" sodipodi:cx="32.5" sodipodi:cy="-83" sodipodi:rx="17.5" sodipodi:ry="17.5" style="fill:#e81123" transform="translate(-38,80.001006)"/>
<path d="M -5.5000002,-133.5 C -14.612,-133.5 -22,-126.112 -22,-117 c 0,9.114 7.388,16.501 16.4999998,16.501 C 3.6129998,-100.5 11,-107.886 11,-117 c 0,-9.112 -7.3870002,-16.5 -16.5000002,-16.5 z m 4.383,10.312 c 1.28100002,0 2.32,1.04 2.32,2.32 0,1.282 -1.03899998,2.32 -2.32,2.32 -1.281,0 -2.32,-1.039 -2.32,-2.32 -10e-4,-1.28 1.039,-2.32 2.32,-2.32 z m -8.765,0 c 1.28,0 2.32,1.04 2.32,2.32 0,1.282 -1.04,2.32 -2.32,2.32 -1.2809998,0 -2.3209998,-1.039 -2.3209998,-2.32 0,-1.28 1.039,-2.32 2.3209998,-2.32 z m 13.04,9.741 c -1.65,3.079 -4.916,5.188 -8.656,5.188 -3.675,0 -7.0189998,-2.134 -8.6939998,-5.267 -0.166,-0.419 -0.044,-0.912 0.33,-1.199 0.453,-0.346 1.1,-0.261 1.446,0.191 1.655,1.984 4.1309998,3.206 6.9159998,3.206 2.793,0 5.28900002,-1.251 6.945,-3.242 0.189,-0.226 0.471,-0.367 0.791,-0.367 0.568,0 1.029,0.461 1.029,1.03 10e-4,0.166 -0.036,0.322 -0.107,0.46 z" id="path15" inkscape:connector-curvature="0" style="fill:#c0dce6"/>
<path d="M -5.4990002,-95.498997 C -14.611,-95.498997 -22,-88.109997 -22,-78.998994 c 0,9.114 7.389,16.5 16.5009998,16.5 9.111,0 16.4990002,-7.386 16.4990002,-16.5 0,-9.111003 -7.3880002,-16.500003 -16.4990002,-16.500003 z m 4.469,10.398 c 1.28000002,0 2.319,1.04 2.319,2.32 0,1.282 -1.03899998,2.321 -2.319,2.321 -1.282,0 -2.321,-1.039 -2.321,-2.321 -10e-4,-1.28 1.039,-2.32 2.321,-2.32 z m -8.767,0 c 1.281,0 2.321,1.04 2.321,2.32 0,1.282 -1.04,2.321 -2.321,2.321 -1.2809998,0 -2.3199998,-1.039 -2.3199998,-2.321 0,-1.28 1.039,-2.32 2.3199998,-2.32 z M -12.729,-72.105994 c 1.379,-2.543 4.1049998,-4.285 7.2289998,-4.285 3.069,0 5.86200002,1.763 7.261,4.35 0.138,0.347 0.037,0.754 -0.276,0.991 -0.378,0.285 -0.91799998,0.215 -1.20699998,-0.159 -1.38200002,-1.638 -3.45000002,-2.648 -5.77500002,-2.648 -2.331,0 -4.416,1.034 -5.7999998,2.678 -0.157,0.186 -0.393,0.304 -0.659,0.304 -0.476,0 -0.86,-0.381 -0.86,-0.852 -0.002,-0.136 0.029,-0.264 0.087,-0.379 z" id="path17" inkscape:connector-curvature="0" style="fill:#c0dce6"/>
<path d="M -5.5000002,94.501006 C -14.612,94.501006 -22,101.889 -22,111 c 0,9.114 7.388,16.501 16.4999998,16.501 C 3.6129998,127.501 11,120.114 11,111 11,101.889 3.6129998,94.501006 -5.5000002,94.501006 z m 4.383,10.311994 c 1.28100002,0 2.32,1.04 2.32,2.32 0,1.282 -1.03899998,2.32 -2.32,2.32 -1.281,0 -2.32,-1.038 -2.32,-2.32 -10e-4,-1.28 1.039,-2.32 2.32,-2.32 z m -8.765,0 c 1.28,0 2.32,1.04 2.32,2.32 0,1.282 -1.04,2.32 -2.32,2.32 -1.2809998,0 -2.3209998,-1.038 -2.3209998,-2.32 0,-1.28 1.039,-2.32 2.3209998,-2.32 z m 13.04,9.741 c -1.65,3.079 -4.916,5.187 -8.656,5.187 -3.675,0 -7.0189998,-2.134 -8.6939998,-5.267 -0.166,-0.419 -0.044,-0.912 0.33,-1.199 0.453,-0.346 1.1,-0.261 1.446,0.191 1.655,1.985 4.1309998,3.207 6.9159998,3.207 2.793,0 5.28900002,-1.251 6.945,-3.242 0.189,-0.226 0.471,-0.367 0.791,-0.367 0.568,0 1.029,0.461 1.029,1.03 10e-4,0.166 -0.036,0.321 -0.107,0.46 z" id="path19" inkscape:connector-curvature="0" style="fill:#e4eef2"/>
<path d="M -5.4990002,132.501 C -14.611,132.501 -22,139.89 -22,149.001 c 0,9.114 7.389,16.5 16.5009998,16.5 9.111,0 16.4990002,-7.386 16.4990002,-16.5 0,-9.111 -7.3880002,-16.5 -16.4990002,-16.5 z m 4.469,10.398 c 1.28000002,0 2.319,1.04 2.319,2.32 0,1.282 -1.03899998,2.321 -2.319,2.321 -1.282,0 -2.321,-1.039 -2.321,-2.321 -10e-4,-1.28 1.039,-2.32 2.321,-2.32 z m -8.767,0 c 1.281,0 2.321,1.04 2.321,2.32 0,1.282 -1.04,2.321 -2.321,2.321 -1.2809998,0 -2.3199998,-1.039 -2.3199998,-2.321 0,-1.28 1.039,-2.32 2.3199998,-2.32 z M -12.729,155.894 c 1.379,-2.543 4.1049998,-4.285 7.2289998,-4.285 3.069,0 5.86200002,1.763 7.261,4.35 0.138,0.347 0.037,0.754 -0.276,0.991 -0.378,0.285 -0.91799998,0.215 -1.20699998,-0.159 -1.38200002,-1.638 -3.45000002,-2.648 -5.77500002,-2.648 -2.331,0 -4.416,1.034 -5.7999998,2.678 -0.157,0.186 -0.393,0.304 -0.659,0.304 -0.476,0 -0.86,-0.381 -0.86,-0.852 -0.002,-0.136 0.029,-0.264 0.087,-0.379 z" id="path21" inkscape:connector-curvature="0" style="fill:#e4eef2"/>
<path d="m -5.5000002,-57.498994 c -9.1119998,0 -16.4999998,7.388 -16.4999998,16.5 0,9.114 7.388,16.5 16.4999998,16.5 9.113,0 16.5000002,-7.386 16.5000002,-16.5 0,-9.112 -7.3870002,-16.5 -16.5000002,-16.5 z m 4.383,10.312 c 1.28100002,0 2.32,1.04 2.32,2.32 0,1.282 -1.03899998,2.32 -2.32,2.32 -1.281,0 -2.32,-1.039 -2.32,-2.32 -10e-4,-1.28 1.039,-2.32 2.32,-2.32 z m -8.765,0 c 1.28,0 2.32,1.04 2.32,2.32 0,1.282 -1.04,2.32 -2.32,2.32 -1.2809998,0 -2.3209998,-1.039 -2.3209998,-2.32 0,-1.28 1.039,-2.32 2.3209998,-2.32 z m 13.04,9.741 c -1.65,3.079 -4.916,5.188 -8.656,5.188 -3.675,0 -7.0189998,-2.134 -8.6939998,-5.267 -0.166,-0.419 -0.044,-0.912 0.33,-1.199 0.453,-0.346 1.1,-0.261 1.446,0.191 1.655,1.984 4.1309998,3.206 6.9159998,3.206 2.793,0 5.28900002,-1.251 6.945,-3.242 0.189,-0.226 0.471,-0.367 0.791,-0.367 0.568,0 1.029,0.461 1.029,1.03 10e-4,0.166 -0.036,0.322 -0.107,0.46 z" id="path23" inkscape:connector-curvature="0" style="fill:#ecf5d9"/>
<path d="M -5.4990002,-19.498994 C -14.611,-19.498994 -22,-12.109994 -22,-2.9989941 c 0,9.114 7.389,16.5000001 16.5009998,16.5000001 C 3.6119998,13.501006 11,6.1150059 11,-2.9989941 11,-12.109994 3.6119998,-19.498994 -5.4990002,-19.498994 z m 4.469,10.398 c 1.28000002,0 2.319,1.0399999 2.319,2.3199999 0,1.282 -1.03899998,2.321 -2.319,2.321 -1.282,0 -2.321,-1.039 -2.321,-2.321 -10e-4,-1.28 1.039,-2.3199999 2.321,-2.3199999 z m -8.767,0 c 1.281,0 2.321,1.0399999 2.321,2.3199999 0,1.282 -1.04,2.321 -2.321,2.321 -1.2809998,0 -2.3199998,-1.039 -2.3199998,-2.321 0,-1.28 1.039,-2.3199999 2.3199998,-2.3199999 z M -12.729,3.8940059 c 1.379,-2.543 4.1049998,-4.28499988 7.2289998,-4.28499988 3.069,0 5.86200002,1.76299988 7.261,4.34999988 0.138,0.347 0.037,0.754 -0.276,0.991 -0.378,0.285 -0.91799998,0.215 -1.20699998,-0.159 -1.38200002,-1.638 -3.45000002,-2.648 -5.77500002,-2.648 -2.331,0 -4.416,1.034 -5.7999998,2.678 -0.157,0.186 -0.393,0.304 -0.659,0.304 -0.476,0 -0.86,-0.381 -0.86,-0.852 -0.002,-0.136 0.029,-0.264 0.087,-0.379 z" id="path25" inkscape:connector-curvature="0" style="fill:#fcdcde"/>
<circle cx="-5.5" cy="-46.5" r="18" id="circle27" sodipodi:cx="-5.5" sodipodi:cy="-46.5" sodipodi:rx="18" sodipodi:ry="18" style="fill:#7fba00" transform="translate(5.2771842e-8,81.501009)"/>
<circle cx="32.5" cy="-46.5" r="18" id="circle29" sodipodi:cx="32.5" sodipodi:cy="-46.5" sodipodi:rx="18" sodipodi:ry="18" style="fill:#e81123" transform="translate(-38,119.50101)"/>
<path d="m -5.5,18.501009 c -9.112,0 -16.5,7.389 -16.5,16.5 0,9.114 7.388,16.501 16.5,16.501 9.1130001,0 16.5,-7.387 16.5,-16.501 0,-9.111 -7.3869999,-16.5 -16.5,-16.5 z m 4.383,10.312 c 1.28100005,0 2.32,1.04 2.32,2.32 0,1.282 -1.03899995,2.32 -2.32,2.32 -1.281,0 -2.32,-1.039 -2.32,-2.32 -0.001,-1.279 1.039,-2.32 2.32,-2.32 z m -8.7650001,0 c 1.28,0 2.3200001,1.04 2.3200001,2.32 0,1.282 -1.0400001,2.32 -2.3200001,2.32 -1.2809999,0 -2.3209999,-1.039 -2.3209999,-2.32 0,-1.279 1.039,-2.32 2.3209999,-2.32 z m 13.0400002,9.742 c -1.6500001,3.079 -4.9160001,5.188 -8.6560001,5.188 -3.6750001,0 -7.019,-2.134 -8.694,-5.267 -0.166,-0.419 -0.044,-0.912 0.33,-1.199 0.453,-0.346 1.1,-0.261 1.446,0.191 1.655,1.984 4.1309999,3.206 6.916,3.206 2.793,0 5.28900005,-1.251 6.945,-3.242 0.189,-0.226 0.471,-0.367 0.791,-0.367 0.5680001,0 1.0290001,0.461 1.0290001,1.03 10e-4,0.166 -0.036,0.321 -0.107,0.46 z" id="path31" inkscape:connector-curvature="0" style="fill:#ecf5d9"/>
<path d="m -5.4990002,56.501014 c -9.1119998,0 -16.5009998,7.389 -16.5009998,16.5 0,9.114 7.389,16.5 16.5009998,16.5 9.111,0 16.4990002,-7.386 16.4990002,-16.5 0,-9.111 -7.3880002,-16.5 -16.4990002,-16.5 z m 4.469,10.398 c 1.28000002,0 2.319,1.04 2.319,2.32 0,1.282 -1.03899998,2.321 -2.319,2.321 -1.282,0 -2.321,-1.039 -2.321,-2.321 -10e-4,-1.28 1.039,-2.32 2.321,-2.32 z m -8.767,0 c 1.281,0 2.321,1.04 2.321,2.32 0,1.282 -1.04,2.321 -2.321,2.321 -1.2809998,0 -2.3199998,-1.039 -2.3199998,-2.321 0,-1.28 1.039,-2.32 2.3199998,-2.32 z m -2.9319998,12.995 c 1.379,-2.543 4.1049998,-4.285 7.2289998,-4.285 3.069,0 5.86200002,1.763 7.261,4.35 0.138,0.347 0.037,0.754 -0.276,0.991 -0.378,0.285 -0.91799998,0.215 -1.20699998,-0.159 -1.38200002,-1.638 -3.45000002,-2.648 -5.77500002,-2.648 -2.331,0 -4.416,1.034 -5.7999998,2.678 -0.157,0.186 -0.393,0.304 -0.659,0.304 -0.476,0 -0.86,-0.381 -0.86,-0.852 -0.002,-0.136 0.029,-0.264 0.087,-0.379 z" id="path33" inkscape:connector-curvature="0" style="fill:#fcdcde"/>
</svg>